<svg t="1718528929834" class="icon" viewBox="0 0 1024 1024" version="1.1" xmlns="http://www.w3.org/2000/svg" p-id="4630" width="200" height="200"><path d="M716.8 569.6c-32 0-64 12.8-83.2 32l-89.6-44.8c6.4-12.8 6.4-32 6.4-44.8 0-19.2-6.4-32-6.4-51.2l89.6-51.2c19.2 25.6 51.2 38.4 83.2 38.4 70.4 0 121.6-57.6 121.6-121.6s-57.6-121.6-121.6-121.6c-70.4-6.4-128 51.2-128 115.2v25.6l-83.2 51.2c-25.6-32-57.6-51.2-96-57.6V243.2c51.2-19.2 83.2-64 83.2-115.2 6.4-70.4-51.2-128-121.6-128-64 0-121.6 57.6-121.6 121.6 0 57.6 38.4 102.4 83.2 115.2v96C256 358.4 198.4 428.8 198.4 512c0 83.2 57.6 153.6 140.8 172.8v96c-51.2 19.2-83.2 64-83.2 115.2 0 70.4 57.6 121.6 121.6 121.6 70.4 0 121.6-57.6 121.6-121.6 0-57.6-38.4-102.4-83.2-115.2v-96c38.4-6.4 70.4-32 96-57.6l83.2 44.8v25.6c0 70.4 57.6 121.6 121.6 121.6 70.4 0 121.6-57.6 121.6-121.6s-57.6-128-121.6-128z m0-294.4c25.6 0 44.8 19.2 44.8 44.8s-19.2 44.8-44.8 44.8c-25.6 0-44.8-19.2-44.8-44.8s19.2-44.8 44.8-44.8zM371.2 76.8c25.6 0 44.8 19.2 44.8 44.8 0 25.6-19.2 44.8-44.8 44.8-25.6 0-44.8-19.2-44.8-44.8 0-25.6 19.2-44.8 44.8-44.8z m0 870.4c-25.6 0-44.8-19.2-44.8-44.8 0-25.6 19.2-44.8 44.8-44.8s44.8 19.2 44.8 44.8c6.4 25.6-12.8 44.8-44.8 44.8z m0-332.8C320 614.4 275.2 569.6 275.2 512S320 409.6 371.2 409.6s102.4 44.8 102.4 102.4c0 19.2-6.4 32-12.8 44.8-12.8 32-51.2 57.6-89.6 57.6z m345.6 128c-25.6 0-44.8-19.2-44.8-44.8s19.2-44.8 44.8-44.8c25.6 0 44.8 19.2 44.8 44.8s-19.2 44.8-44.8 44.8z" fill="#FACC14" p-id="4631"></path></svg>
