<svg t="1718527616761" class="icon" viewBox="0 0 1024 1024" version="1.1" xmlns="http://www.w3.org/2000/svg" p-id="1596" width="200" height="200"><path d="M752.274286 662.966857l-175.030857-0.512-87.186286-151.917714 88.064-151.332572 175.030857 0.585143 87.186286 151.844572z" fill="#C12766" p-id="1597"></path><path d="M475.501714 821.76l-175.104-0.512L213.357714 669.330286l87.990857-151.405715 175.104 0.585143 87.04 151.917715z" fill="#3E489F" p-id="1598"></path><path d="M750.518857 981.284571l-175.104-0.512-87.04-151.917714 87.990857-151.405714 175.104 0.585143 87.113143 151.917714z" fill="#714099" p-id="1599"></path><path d="M476.964571 505.417143L301.860571 504.905143 214.820571 352.987429l87.990858-151.405715 175.104 0.585143 87.04 151.917714z" fill="#78932C" p-id="1600"></path><path d="M752.128 346.404571l-175.104-0.512-87.04-151.917714L577.974857 42.642286l175.104 0.585143 87.04 151.844571z" fill="#CF242A" p-id="1601"></path><path d="M665.014857 194.56m-73.142857 0a73.142857 73.142857 0 1 0 146.285714 0 73.142857 73.142857 0 1 0-146.285714 0Z" fill="#FFFFFF" p-id="1602"></path><path d="M389.924571 353.499429m-73.142857 0a73.142857 73.142857 0 1 0 146.285715 0 73.142857 73.142857 0 1 0-146.285715 0Z" fill="#FFFFFF" p-id="1603"></path><path d="M388.461714 669.842286m-73.142857 0a73.142857 73.142857 0 1 0 146.285714 0 73.142857 73.142857 0 1 0-146.285714 0Z" fill="#FFFFFF" p-id="1604"></path><path d="M663.478857 829.44m-73.142857 0a73.142857 73.142857 0 1 0 146.285714 0 73.142857 73.142857 0 1 0-146.285714 0Z" fill="#FFFFFF" p-id="1605"></path><path d="M397.385143 322.486857L638.244571 184.539429l20.041143 34.962285-240.932571 137.947429-19.968-34.889143z m-28.525714 51.785143l40.155428-0.073143 0.804572 277.650286-40.228572 0.073143-0.731428-277.650286zM397.677714 698.733714l20.48-34.596571 238.738286 141.824-20.553143 34.596571L397.677714 698.733714z" fill="#FFFFFF" p-id="1606"></path><path d="M665.161143 511.122286m-73.142857 0a73.142857 73.142857 0 1 0 146.285714 0 73.142857 73.142857 0 1 0-146.285714 0Z" fill="#FFFFFF" p-id="1607"></path><path d="M644.169143 213.211429l69.12-0.073143 1.462857 277.650285-69.193143 0.073143-1.462857-277.650285z m2.56 318.317714l69.12-0.146286 1.462857 277.650286-69.193143 0.146286-1.462857-277.650286z" fill="#FFFFFF" p-id="1608"></path><path d="M397.750857 641.609143l240.932572-138.020572 20.041142 34.889143-240.932571 138.020572z" fill="#FFFFFF" p-id="1609"></path><path d="M398.628571 382.464l20.48-34.596571 238.738286 141.824-20.48 34.596571z" fill="#FFFFFF" p-id="1610"></path></svg>
