<svg t="1718528957513" class="icon" viewBox="0 0 1024 1024" version="1.1" xmlns="http://www.w3.org/2000/svg" p-id="6577" width="200" height="200"><path d="M80.842105 80.842105h862.31579v862.31579H80.842105z" fill="#D8D8D8" fill-opacity="0" p-id="6578"></path><path d="M514.357895 923.553684c-64.835368-60.173474-62.167579-128.363789-62.167579-128.363789h124.362105s2.654316 68.176842-62.181053 128.363789h-0.013473z m0-754.917052c-54.730105 72.218947-160.943158 236.422737-160.943158 421.537684 0 53.584842 10.051368 98.438737 20.183579 130.074947h281.505684a428.058947 428.058947 0 0 0 20.183579-130.074947c0-185.128421-106.253474-349.318737-160.929684-421.551158v0.013474z m204.045473 421.537684c0 121.936842-46.740211 202.455579-46.74021 202.455579l-49.987369-29.237895H407.04l-50.000842 29.237895s-46.753684-80.478316-46.753684-202.455579c0-268.665263 204.032-489.660632 204.072421-489.728 0.067368 0.067368 204.045474 221.062737 204.045473 489.728z m28.240843 80.060631c0 46.753684-20.749474 97.576421-35.058527 119.013053h99.085474l-10.967579-67.368421-53.059368-51.644632z m-517.645474 51.658106l-10.967579 67.395368h99.085474c-14.322526-21.423158-35.085474-72.259368-35.085474-119.013053l-53.032421 51.617685zM475.486316 527.36a9.606737 9.606737 0 1 0-2.115369 19.092211 9.606737 9.606737 0 0 0 2.115369-19.092211z m30.72 0a9.606737 9.606737 0 1 0-2.128842 19.092211 9.606737 9.606737 0 0 0 2.115368-19.092211z m30.679579 0a9.606737 9.606737 0 1 0-2.115369 19.092211 9.606737 9.606737 0 0 0 2.115369-19.092211z m104.85221 121.128421a49.583158 49.583158 0 1 1-92.577684-24.643368l-12.368842-16.909474a76.126316 76.126316 0 0 1-80.074105-11.816421l-13.824 12.005053a29.642105 29.642105 0 1 1-28.968421-23.444211c3.570526 0 6.925474 0.700632 10.105263 1.845895l14.686316-12.773053a76.085895 76.085895 0 0 1 6.669473-81.933474l-15.467789-16.815157c-1.118316 0.134737-2.223158 0.323368-3.368421 0.323368a25.195789 25.195789 0 1 1 24.576-19.671579l15.629473 16.990316a75.991579 75.991579 0 0 1 77.056-1.239579l13.190737-13.204211a39.235368 39.235368 0 1 1 24.333474 24.346948l-12.112842 12.112842a76.126316 76.126316 0 0 1-4.742737 92.752842l11.290947 15.400421a49.488842 49.488842 0 0 1 16.505264-2.883368 49.623579 49.623579 0 0 1 49.502315 49.623578l-0.013473-0.053894h-0.026948z m-135.545263-51.388632a60.173474 60.173474 0 1 0 2.492632-120.32 60.173474 60.173474 0 0 0-2.492632 120.32z" fill="#DA7300" p-id="6579"></path></svg>
