<svg t="1718529066554" class="icon" viewBox="0 0 1024 1024" version="1.1" xmlns="http://www.w3.org/2000/svg" p-id="7572" width="200" height="200"><path d="M232.05888 549.60128h-1.65888v215.40864c0 15.54432 12.75904 28.30336 28.32384 28.30336h221.77792c-1.92512-134.59456-112.4352-243.712-248.44288-243.712z m0-177.64352h-1.65888v91.60704c182.90688 0.8192 331.65312 147.968 333.66016 329.74848h94.9248c-1.72032-232.59136-192.4096-421.29408-427.008-421.29408l0.08192-0.06144zM793.6 765.25568v-194.51904A606.65856 606.65856 0 0 0 438.31296 230.4h-179.6096c-15.60576 0.06144-28.24192 12.6976-28.30336 28.32384v27.46368c281.47712 0.83968 510.44352 227.6352 512.1024 507.41248h22.77376a28.44672 28.44672 0 0 0 28.32384-28.32384v-0.02048z m-74.09664-456.25344c26.07104 26.05056 52.69504 59.12576 74.09664 88.22784V258.4576a27.97568 27.97568 0 0 0-28.03712-28.0576h-142.92992c33.30048 23.06048 67.70688 49.39776 96.8704 78.56128v0.04096z" fill="#9828AC" p-id="7573"></path></svg>
